# xmcd
#
# Track frame offsets:
#	150
#	18305
#	39318
#	51959
#	66409
#	90871
#	110697
#	126452
#	145797
#	165643
#
# Disc length: 2338 seconds
#
# Revision: 0
# Processed by: cddbd v1.4PL0 Copyright (c) Steve Scherf et al.
# Submitted via: dBpowerAMP V4.0
#
DISCID=8509200a
DTITLE=Ksilouris Nikos - Salpisma
DYEAR=1900
DGENRE=
TTITLE0=H mpalanta tou kir Mentiou
TTITLE1=Tin kardia sou
TTITLE2=Tis nixtes
TTITLE3=Mia kori
TTITLE4=Ponoi tis panagias
TTITLE5=Ki an esbise
TTITLE6=Idanikoi autoxeires
TTITLE7=Den agapas
TTITLE8=Eisai psixi mou
TTITLE9=To agalma tis eleutherias
EXTD=
EXTT0=
EXTT1=
EXTT2=
EXTT3=
EXTT4=
EXTT5=
EXTT6=
EXTT7=
EXTT8=
EXTT9=
PLAYORDER=
